<?xml version="1.0" encoding="UTF-8" standalone="no"?><svg xmlns="http://www.w3.org/2000/svg" xmlns:xlink="http://www.w3.org/1999/xlink" contentStyleType="text/css" height="309px" preserveAspectRatio="none" style="width:769px;height:309px;background:#FFFFFF;" version="1.1" viewBox="0 0 769 309" width="769px" zoomAndPan="magnify"><defs/><g><rect fill="#F1F1F1" height="21.6094" rx="5" ry="5" style="stroke:#F1F1F1;stroke-width:1.5;" width="114" x="10" y="120.5"/><text fill="#000000" font-family="sans-serif" font-size="14" font-weight="bold" lengthAdjust="spacing" textLength="82" x="15" y="137.0332">root_swarm</text><text fill="#000000" font-family="sans-serif" font-size="14" lengthAdjust="spacing" textLength="12" x="107" y="137.0332">   </text><line style="stroke:#000000;stroke-width:1.0;" x1="102" x2="102" y1="120.5" y2="142.1094"/><rect fill="none" height="21.6094" rx="5" ry="5" style="stroke:#000000;stroke-width:1.5;" width="114" x="10" y="120.5"/><rect fill="#F1F1F1" height="43.2188" rx="5" ry="5" style="stroke:#F1F1F1;stroke-width:1.5;" width="133" x="161" y="110"/><text fill="#000000" font-family="sans-serif" font-size="14" font-weight="bold" lengthAdjust="spacing" textLength="101" x="166" y="126.5332">[*] root_swarm</text><text fill="#000000" font-family="sans-serif" font-size="14" lengthAdjust="spacing" textLength="4" x="277" y="126.5332"> </text><line style="stroke:#000000;stroke-width:1.0;" x1="272" x2="272" y1="110" y2="131.6094"/><line style="stroke:#000000;stroke-width:1.0;" x1="161" x2="294" y1="131.6094" y2="131.6094"/><text fill="#000000" font-family="sans-serif" font-size="14" font-weight="bold" lengthAdjust="spacing" textLength="89" x="166" y="148.1426">triage_agent</text><text fill="#000000" font-family="sans-serif" font-size="14" lengthAdjust="spacing" textLength="12" x="277" y="148.1426">   </text><line style="stroke:#000000;stroke-width:1.0;" x1="272" x2="272" y1="131.6094" y2="153.2188"/><rect fill="none" height="43.2188" rx="5" ry="5" style="stroke:#000000;stroke-width:1.5;" width="133" x="161" y="110"/><rect fill="#F1F1F1" height="129.6563" rx="5" ry="5" style="stroke:#F1F1F1;stroke-width:1.5;" width="189" x="331" y="77.5"/><text fill="#000000" font-family="sans-serif" font-size="14" font-weight="bold" lengthAdjust="spacing" textLength="108" x="336" y="94.0332">[*] triage_agent</text><text fill="#000000" font-family="sans-serif" font-size="14" lengthAdjust="spacing" textLength="4" x="503" y="94.0332"> </text><line style="stroke:#000000;stroke-width:1.0;" x1="498" x2="498" y1="77.5" y2="99.1094"/><line style="stroke:#000000;stroke-width:1.0;" x1="331" x2="520" y1="99.1094" y2="99.1094"/><text fill="#000000" font-family="sans-serif" font-size="14" font-weight="bold" lengthAdjust="spacing" textLength="152" x="336" y="115.6426">btc_consultant_agent</text><text fill="#000000" font-family="sans-serif" font-size="14" lengthAdjust="spacing" textLength="12" x="503" y="115.6426">   </text><line style="stroke:#000000;stroke-width:1.0;" x1="498" x2="498" y1="99.1094" y2="120.7188"/><line style="stroke:#000000;stroke-width:1.0;" x1="331" x2="520" y1="120.7188" y2="120.7188"/><text fill="#000000" font-family="sans-serif" font-size="14" font-weight="bold" lengthAdjust="spacing" textLength="153" x="336" y="137.252">eth_consultant_agent</text><text fill="#000000" font-family="sans-serif" font-size="14" lengthAdjust="spacing" textLength="12" x="503" y="137.252">   </text><line style="stroke:#000000;stroke-width:1.0;" x1="498" x2="498" y1="120.7188" y2="142.3281"/><line style="stroke:#000000;stroke-width:1.0;" x1="331" x2="520" y1="142.3281" y2="142.3281"/><text fill="#000000" font-family="sans-serif" font-size="14" font-weight="bold" lengthAdjust="spacing" textLength="157" x="336" y="158.8613">bnb_consultant_agent</text><text fill="#000000" font-family="sans-serif" font-size="14" lengthAdjust="spacing" textLength="12" x="503" y="158.8613">   </text><line style="stroke:#000000;stroke-width:1.0;" x1="498" x2="498" y1="142.3281" y2="163.9375"/><line style="stroke:#000000;stroke-width:1.0;" x1="331" x2="520" y1="163.9375" y2="163.9375"/><text fill="#000000" font-family="sans-serif" font-size="14" font-weight="bold" lengthAdjust="spacing" textLength="153" x="336" y="180.4707">xrp_consultant_agent</text><text fill="#000000" font-family="sans-serif" font-size="14" lengthAdjust="spacing" textLength="12" x="503" y="180.4707">   </text><line style="stroke:#000000;stroke-width:1.0;" x1="498" x2="498" y1="163.9375" y2="185.5469"/><line style="stroke:#000000;stroke-width:1.0;" x1="331" x2="520" y1="185.5469" y2="185.5469"/><text fill="#000000" font-family="sans-serif" font-size="14" font-weight="bold" lengthAdjust="spacing" textLength="151" x="336" y="202.0801">sol_consultant_agent</text><text fill="#000000" font-family="sans-serif" font-size="14" lengthAdjust="spacing" textLength="12" x="503" y="202.0801">   </text><line style="stroke:#000000;stroke-width:1.0;" x1="498" x2="498" y1="185.5469" y2="207.1563"/><rect fill="none" height="129.6563" rx="5" ry="5" style="stroke:#000000;stroke-width:1.5;" width="189" x="331" y="77.5"/><rect fill="#F1F1F1" height="43.2188" rx="5" ry="5" style="stroke:#F1F1F1;stroke-width:1.5;" width="195" x="559.5" y="10"/><text fill="#000000" font-family="sans-serif" font-size="14" font-weight="bold" lengthAdjust="spacing" textLength="171" x="564.5" y="26.5332">[*] btc_consultant_agent</text><text fill="#000000" font-family="sans-serif" font-size="14" lengthAdjust="spacing" textLength="4" x="745.5" y="26.5332"> </text><line style="stroke:#000000;stroke-width:1.0;" x1="740.5" x2="740.5" y1="10" y2="31.6094"/><line style="stroke:#000000;stroke-width:1.0;" x1="559.5" x2="754.5" y1="31.6094" y2="31.6094"/><text fill="#000000" font-family="sans-serif" font-size="14" font-weight="bold" lengthAdjust="spacing" textLength="89" x="564.5" y="48.1426">triage_agent</text><text fill="#000000" font-family="sans-serif" font-size="14" lengthAdjust="spacing" textLength="4" x="745.5" y="48.1426"> </text><line style="stroke:#000000;stroke-width:1.0;" x1="740.5" x2="740.5" y1="31.6094" y2="53.2188"/><rect fill="none" height="43.2188" rx="5" ry="5" style="stroke:#000000;stroke-width:1.5;" width="195" x="559.5" y="10"/><rect fill="#F1F1F1" height="43.2188" rx="5" ry="5" style="stroke:#F1F1F1;stroke-width:1.5;" width="196" x="559" y="71"/><text fill="#000000" font-family="sans-serif" font-size="14" font-weight="bold" lengthAdjust="spacing" textLength="172" x="564" y="87.5332">[*] eth_consultant_agent</text><text fill="#000000" font-family="sans-serif" font-size="14" lengthAdjust="spacing" textLength="4" x="746" y="87.5332"> </text><line style="stroke:#000000;stroke-width:1.0;" x1="741" x2="741" y1="71" y2="92.6094"/><line style="stroke:#000000;stroke-width:1.0;" x1="559" x2="755" y1="92.6094" y2="92.6094"/><text fill="#000000" font-family="sans-serif" font-size="14" font-weight="bold" lengthAdjust="spacing" textLength="89" x="564" y="109.1426">triage_agent</text><text fill="#000000" font-family="sans-serif" font-size="14" lengthAdjust="spacing" textLength="4" x="746" y="109.1426"> </text><line style="stroke:#000000;stroke-width:1.0;" x1="741" x2="741" y1="92.6094" y2="114.2188"/><rect fill="none" height="43.2188" rx="5" ry="5" style="stroke:#000000;stroke-width:1.5;" width="196" x="559" y="71"/><rect fill="#F1F1F1" height="43.2188" rx="5" ry="5" style="stroke:#F1F1F1;stroke-width:1.5;" width="200" x="557" y="132"/><text fill="#000000" font-family="sans-serif" font-size="14" font-weight="bold" lengthAdjust="spacing" textLength="176" x="562" y="148.5332">[*] bnb_consultant_agent</text><text fill="#000000" font-family="sans-serif" font-size="14" lengthAdjust="spacing" textLength="4" x="748" y="148.5332"> </text><line style="stroke:#000000;stroke-width:1.0;" x1="743" x2="743" y1="132" y2="153.6094"/><line style="stroke:#000000;stroke-width:1.0;" x1="557" x2="757" y1="153.6094" y2="153.6094"/><text fill="#000000" font-family="sans-serif" font-size="14" font-weight="bold" lengthAdjust="spacing" textLength="89" x="562" y="170.1426">triage_agent</text><text fill="#000000" font-family="sans-serif" font-size="14" lengthAdjust="spacing" textLength="4" x="748" y="170.1426"> </text><line style="stroke:#000000;stroke-width:1.0;" x1="743" x2="743" y1="153.6094" y2="175.2188"/><rect fill="none" height="43.2188" rx="5" ry="5" style="stroke:#000000;stroke-width:1.5;" width="200" x="557" y="132"/><rect fill="#F1F1F1" height="43.2188" rx="5" ry="5" style="stroke:#F1F1F1;stroke-width:1.5;" width="196" x="559" y="193"/><text fill="#000000" font-family="sans-serif" font-size="14" font-weight="bold" lengthAdjust="spacing" textLength="172" x="564" y="209.5332">[*] xrp_consultant_agent</text><text fill="#000000" font-family="sans-serif" font-size="14" lengthAdjust="spacing" textLength="4" x="746" y="209.5332"> </text><line style="stroke:#000000;stroke-width:1.0;" x1="741" x2="741" y1="193" y2="214.6094"/><line style="stroke:#000000;stroke-width:1.0;" x1="559" x2="755" y1="214.6094" y2="214.6094"/><text fill="#000000" font-family="sans-serif" font-size="14" font-weight="bold" lengthAdjust="spacing" textLength="89" x="564" y="231.1426">triage_agent</text><text fill="#000000" font-family="sans-serif" font-size="14" lengthAdjust="spacing" textLength="4" x="746" y="231.1426"> </text><line style="stroke:#000000;stroke-width:1.0;" x1="741" x2="741" y1="214.6094" y2="236.2188"/><rect fill="none" height="43.2188" rx="5" ry="5" style="stroke:#000000;stroke-width:1.5;" width="196" x="559" y="193"/><rect fill="#F1F1F1" height="43.2188" rx="5" ry="5" style="stroke:#F1F1F1;stroke-width:1.5;" width="194" x="560" y="254"/><text fill="#000000" font-family="sans-serif" font-size="14" font-weight="bold" lengthAdjust="spacing" textLength="170" x="565" y="270.5332">[*] sol_consultant_agent</text><text fill="#000000" font-family="sans-serif" font-size="14" lengthAdjust="spacing" textLength="4" x="745" y="270.5332"> </text><line style="stroke:#000000;stroke-width:1.0;" x1="740" x2="740" y1="254" y2="275.6094"/><line style="stroke:#000000;stroke-width:1.0;" x1="560" x2="754" y1="275.6094" y2="275.6094"/><text fill="#000000" font-family="sans-serif" font-size="14" font-weight="bold" lengthAdjust="spacing" textLength="89" x="565" y="292.1426">triage_agent</text><text fill="#000000" font-family="sans-serif" font-size="14" lengthAdjust="spacing" textLength="4" x="745" y="292.1426"> </text><line style="stroke:#000000;stroke-width:1.0;" x1="740" x2="740" y1="275.6094" y2="297.2188"/><rect fill="none" height="43.2188" rx="5" ry="5" style="stroke:#000000;stroke-width:1.5;" width="194" x="560" y="254"/><path d="M508,109.5 L521,109.5 C547.6667,109.5 535.1437,76.7779 557,61.5 C559.3568,59.8526 561.8058,58.294 564.3263,56.8195 " fill="none" style="stroke:#000000;stroke-width:1.0;stroke-dasharray:3.0,3.0;"/><path d="M565.8101,59.5496 L566.3739,55.7067 L562.8426,54.0895 L571.1515,53.1101 L565.8101,59.5496 " fill="#000000" style="stroke:#000000;stroke-width:1.0;"/><ellipse cx="508" cy="109.5" fill="#000000" rx="3" ry="3" style="stroke:#000000;stroke-width:1.0;"/><path d="M508,131.5 L521,131.5 C527.6852,131.5 553.3374,124.3988 580.5524,116.2566 " fill="none" style="stroke:#000000;stroke-width:1.0;stroke-dasharray:3.0,3.0;"/><path d="M581.4337,119.185 L582.7486,115.5956 L579.671,113.3283 L587.8733,114.0533 L581.4337,119.185 " fill="#000000" style="stroke:#000000;stroke-width:1.0;"/><ellipse cx="508" cy="131.5" fill="#000000" rx="3" ry="3" style="stroke:#000000;stroke-width:1.0;"/><path d="M508,153.5 L521,153.5 C530.2811,153.5 539.9197,153.5 549.5853,153.5 " fill="none" style="stroke:#000000;stroke-width:1.0;stroke-dasharray:3.0,3.0;"/><path d="M549.5853,156.6004 L551.9106,153.5 L549.5853,150.3996 L557.3364,153.5 L549.5853,156.6004 " fill="#000000" style="stroke:#000000;stroke-width:1.0;"/><ellipse cx="508" cy="153.5" fill="#000000" rx="3" ry="3" style="stroke:#000000;stroke-width:1.0;"/><path d="M508,174.5 L521,174.5 C522.7171,174.5 548.8708,182.1573 577.7488,190.7713 " fill="none" style="stroke:#000000;stroke-width:1.0;stroke-dasharray:3.0,3.0;"/><path d="M576.8662,193.7263 L579.9651,191.4333 L578.6315,187.8164 L585.1362,192.9779 L576.8662,193.7263 " fill="#000000" style="stroke:#000000;stroke-width:1.0;"/><ellipse cx="508" cy="174.5" fill="#000000" rx="3" ry="3" style="stroke:#000000;stroke-width:1.0;"/><path d="M508,196.5 L521,196.5 C548.0235,196.5 534.9279,229.9085 557,245.5 C559.3486,247.1591 561.7905,248.7278 564.3048,250.2111 " fill="none" style="stroke:#000000;stroke-width:1.0;stroke-dasharray:3.0,3.0;"/><path d="M562.8128,252.9354 L566.348,251.3301 L565.7968,247.4868 L571.1156,253.941 L562.8128,252.9354 " fill="#000000" style="stroke:#000000;stroke-width:1.0;"/><ellipse cx="508" cy="196.5" fill="#000000" rx="3" ry="3" style="stroke:#000000;stroke-width:1.0;"/><path d="M282,142.5 L295,142.5 C304.2605,142.5 313.8921,142.5 323.5379,142.5 " fill="none" style="stroke:#000000;stroke-width:1.0;stroke-dasharray:3.0,3.0;"/><path d="M323.5379,145.5928 L325.8575,142.5 L323.5379,139.4072 L331.2699,142.5 L323.5379,145.5928 " fill="#000000" style="stroke:#000000;stroke-width:1.0;"/><ellipse cx="282" cy="142.5" fill="#000000" rx="3" ry="3" style="stroke:#000000;stroke-width:1.0;"/><path d="M112,131.5 L125,131.5 C134.292,131.5 144.0602,131.5 153.719,131.5 " fill="none" style="stroke:#000000;stroke-width:1.0;stroke-dasharray:3.0,3.0;"/><path d="M153.719,134.5846 L156.0324,131.5 L153.719,128.4154 L161.4304,131.5 L153.719,134.5846 " fill="#000000" style="stroke:#000000;stroke-width:1.0;"/><ellipse cx="112" cy="131.5" fill="#000000" rx="3" ry="3" style="stroke:#000000;stroke-width:1.0;"/></g></svg>