<?xml version="1.0" encoding="UTF-8" standalone="no"?><svg xmlns="http://www.w3.org/2000/svg" xmlns:xlink="http://www.w3.org/1999/xlink" contentStyleType="text/css" height="65px" preserveAspectRatio="none" style="width:328px;height:65px;background:#FFFFFF;" version="1.1" viewBox="0 0 328 65" width="328px" zoomAndPan="magnify"><defs/><g><rect fill="#F1F1F1" height="21.6094" rx="5" ry="5" style="stroke:#F1F1F1;stroke-width:1.5;" width="129" x="10" y="20.5"/><text fill="#000000" font-family="sans-serif" font-size="14" font-weight="bold" lengthAdjust="spacing" textLength="97" x="15" y="37.0332">report_swarm</text><text fill="#000000" font-family="sans-serif" font-size="14" lengthAdjust="spacing" textLength="12" x="122" y="37.0332">   </text><line style="stroke:#000000;stroke-width:1.0;" x1="117" x2="117" y1="20.5" y2="42.1094"/><rect fill="none" height="21.6094" rx="5" ry="5" style="stroke:#000000;stroke-width:1.5;" width="129" x="10" y="20.5"/><rect fill="#F1F1F1" height="43.2188" rx="5" ry="5" style="stroke:#F1F1F1;stroke-width:1.5;" width="140" x="176" y="10"/><text fill="#000000" font-family="sans-serif" font-size="14" font-weight="bold" lengthAdjust="spacing" textLength="116" x="181" y="26.5332">[*] report_swarm</text><text fill="#000000" font-family="sans-serif" font-size="14" lengthAdjust="spacing" textLength="4" x="307" y="26.5332"> </text><line style="stroke:#000000;stroke-width:1.0;" x1="302" x2="302" y1="10" y2="31.6094"/><line style="stroke:#000000;stroke-width:1.0;" x1="176" x2="316" y1="31.6094" y2="31.6094"/><text fill="#000000" font-family="sans-serif" font-size="14" font-weight="bold" lengthAdjust="spacing" textLength="92" x="181" y="48.1426">report_agent</text><text fill="#000000" font-family="sans-serif" font-size="14" lengthAdjust="spacing" textLength="4" x="307" y="48.1426"> </text><line style="stroke:#000000;stroke-width:1.0;" x1="302" x2="302" y1="31.6094" y2="53.2188"/><rect fill="none" height="43.2188" rx="5" ry="5" style="stroke:#000000;stroke-width:1.5;" width="140" x="176" y="10"/><path d="M127,31.5 L140,31.5 C149.2496,31.5 158.9553,31.5 168.5773,31.5 " fill="none" style="stroke:#000000;stroke-width:1.0;stroke-dasharray:3.0,3.0;"/><path d="M168.5773,34.5753 L170.8838,31.5 L168.5773,28.4247 L176.2656,31.5 L168.5773,34.5753 " fill="#000000" style="stroke:#000000;stroke-width:1.0;"/><ellipse cx="127" cy="31.5" fill="#000000" rx="3" ry="3" style="stroke:#000000;stroke-width:1.0;"/></g></svg>